<?xml version="1.0" encoding="utf-8"?>
<!-- Generator: Adobe Illustrator 16.0.4, SVG Export Plug-In . SVG Version: 6.00 Build 0)  -->
<!DOCTYPE svg PUBLIC "-//W3C//DTD SVG 1.1//EN" "http://www.w3.org/Graphics/SVG/1.1/DTD/svg11.dtd">
<svg version="1.1" id="Layer_1" xmlns="http://www.w3.org/2000/svg" xmlns:xlink="http://www.w3.org/1999/xlink" x="0px" y="0px"
	 width="82.583px" height="82.661px" viewBox="0 0 82.583 82.661" enable-background="new 0 0 82.583 82.661" xml:space="preserve">
<g>
	<g>
		<g>
			<path fill="#1A3B3A" d="M17.615,62c3.96-12.711,7.921-25.419,11.881-38.129c-0.41,0.167-0.82,0.334-1.23,0.501
				c4.346,2.588,8.691,5.177,13.037,7.766c0.931,0.554,1.771-0.895,0.846-1.447c-4.346-2.588-8.691-5.177-13.037-7.766
				c-0.478-0.284-1.071-0.01-1.23,0.501C23.92,36.135,19.96,48.844,16,61.554C15.677,62.588,17.294,63.028,17.615,62L17.615,62z"/>
		</g>
	</g>
	<g>
		<g>
			<g>
				<g>
					<path fill="#1A3B3A" d="M41.292,1.85C20.556,2.216,3.735,17.928,1.908,38.575c-1.783,20.14,13.908,39.367,33.925,41.851
						C56.806,83.03,76.079,69.09,80.145,48.344c3.986-20.337-9.669-40.038-29.227-45.308C47.79,2.193,44.521,1.906,41.292,1.85
						c-1.083-0.02-1.082,1.66,0,1.679c20.853,0.369,37.432,16.95,37.8,37.802c0.367,20.854-17.504,37.442-37.8,37.8
						C20.438,79.5,3.849,61.627,3.49,41.331C3.122,20.477,20.995,3.887,41.292,3.528C42.374,3.509,42.375,1.83,41.292,1.85z"/>
				</g>
			</g>
			<path fill="#1A3B3A" d="M37.26,20.868c-0.188,0.118-0.292,0.334-0.262,0.555c0.028,0.221,0.185,0.403,0.397,0.469
				c0.598,0.182,1.218,0.273,1.846,0.273c3.501,0,6.349-2.849,6.349-6.35s-2.848-6.35-6.349-6.35c-0.628,0-1.249,0.092-1.846,0.274
				c-0.213,0.063-0.37,0.247-0.397,0.468c-0.03,0.221,0.073,0.438,0.262,0.555c1.758,1.097,2.808,2.985,2.808,5.052
				S39.018,19.772,37.26,20.868z M41.201,15.816c0-2.009-0.833-3.878-2.277-5.206c0.106-0.006,0.212-0.01,0.318-0.01
				c2.875,0,5.215,2.34,5.215,5.216s-2.34,5.215-5.215,5.215c-0.106,0-0.212-0.003-0.318-0.01
				C40.368,19.693,41.201,17.826,41.201,15.816z"/>
		</g>
	</g>
	<g>
		<path fill="#F1F2F2" d="M25.102,36.369c-0.201-0.067,13.037,7.797,13.037,7.797"/>
		<g>
			<path fill="#1A3B3A" d="M24.508,36.962c0.409,0.469,1.216,0.776,1.734,1.088c1.55,0.933,3.105,1.859,4.66,2.787
				c2.27,1.353,4.541,2.705,6.813,4.054c0.933,0.555,1.777-0.896,0.848-1.449c-2.126-1.264-4.251-2.528-6.375-3.794
				c-1.488-0.887-2.976-1.774-4.462-2.665c-0.492-0.295-1.994-1.166-2.03-1.208C24.982,34.958,23.8,36.15,24.508,36.962
				L24.508,36.962z"/>
		</g>
	</g>
	<g>
		<g>
			<path fill="#1A3B3A" d="M67.459,61.702c-3.961-12.709-7.92-25.418-11.881-38.128c-0.16-0.511-0.754-0.786-1.23-0.501
				c-4.244,2.534-8.489,5.067-12.734,7.601c-0.927,0.553-0.084,2.002,0.846,1.447c4.246-2.534,8.49-5.067,12.734-7.601
				c-0.41-0.167-0.82-0.334-1.23-0.501c3.961,12.709,7.92,25.419,11.882,38.128C66.165,63.174,67.782,62.735,67.459,61.702
				L67.459,61.702z"/>
		</g>
	</g>
</g>
</svg>
