<?xml version="1.0" encoding="utf-8"?>
<!-- Generator: Adobe Illustrator 16.0.4, SVG Export Plug-In . SVG Version: 6.00 Build 0)  -->
<!DOCTYPE svg PUBLIC "-//W3C//DTD SVG 1.1//EN" "http://www.w3.org/Graphics/SVG/1.1/DTD/svg11.dtd">
<svg version="1.1" id="Layer_1" xmlns="http://www.w3.org/2000/svg" xmlns:xlink="http://www.w3.org/1999/xlink" x="0px" y="0px"
	 width="142.215px" height="133.399px" viewBox="0 0 142.215 133.399" enable-background="new 0 0 142.215 133.399"
	 xml:space="preserve">
<g>
	<g>
		<g>
			<path fill="#1A3B3A" d="M37.163,104.579c5.767-18.51,11.535-37.02,17.302-55.529c-0.598,0.243-1.195,0.486-1.792,0.729
				c6.329,3.77,12.657,7.539,18.986,11.309c1.355,0.807,2.582-1.303,1.231-2.107c-6.329-3.77-12.657-7.539-18.986-11.309
				c-0.696-0.414-1.561-0.015-1.792,0.729c-5.767,18.509-11.535,37.018-17.302,55.529C34.34,105.436,36.696,106.075,37.163,104.579
				L37.163,104.579z"/>
		</g>
	</g>
	<g>
		<g>
			<path fill="#1A3B3A" stroke="#1A3B3A" stroke-width="0.9782" stroke-miterlimit="10" d="M6.879,47.438
				C6.904,47.372,6.943,47.354,7,47.375l0.246,0.092c0.066,0.025,0.077,0.05,0.049,0.126L5.708,51.81l3.141,1.182l1.086-2.887
				c0.028-0.075,0.058-0.097,0.133-0.068l0.217,0.082c0.076,0.028,0.093,0.067,0.064,0.143l-1.086,2.887l3.491,1.313
				c0.056,0.021,0.071,0.069,0.049,0.126l-0.075,0.198c-0.035,0.095-0.106,0.111-0.182,0.083l-7.33-2.757
				c-0.066-0.024-0.078-0.05-0.053-0.117L6.879,47.438z"/>
			<path fill="#1A3B3A" stroke="#1A3B3A" stroke-width="0.9782" stroke-miterlimit="10" d="M18.824,41.576
				c0.059-0.001,0.083,0.036,0.054,0.088l-0.147,0.264c-0.045,0.08-0.122,0.094-0.203,0.095l-3.352,0.411l-0.044,0.08l-1.262,2.252
				l2.402,1.346c0.061,0.035,0.073,0.075,0.033,0.146l-0.119,0.211c-0.044,0.08-0.08,0.082-0.142,0.047l-6.87-3.85
				c-0.061-0.035-0.069-0.062-0.03-0.133l1.439-2.569c0.937-1.671,2.562-1.662,3.6-1.08c0.923,0.517,1.704,1.683,1.185,3.125
				L18.824,41.576z M14.754,42.278c0.729-1.302,0.144-2.485-0.806-3.018c-0.937-0.514-2.243-0.391-2.968,0.902l-1.277,2.279
				l3.779,2.106L14.754,42.278z"/>
			<path fill="#1A3B3A" stroke="#1A3B3A" stroke-width="0.9782" stroke-miterlimit="10" d="M26.113,31.982
				c0.059,0.022,0.07,0.057,0.038,0.096l-0.205,0.25c-0.038,0.047-0.081,0.051-0.125,0.041l-1.793-0.454l-3.415,4.164l0.795,1.67
				c0.012,0.049,0.022,0.084-0.009,0.123l-0.211,0.257c-0.032,0.04-0.075,0.044-0.103-0.018l-3.747-7.964
				c-0.036-0.068-0.024-0.098,0.002-0.129l0.102-0.125c0.026-0.031,0.053-0.048,0.126-0.027L26.113,31.982z M17.914,30.384
				l2.507,5.277l3.166-3.86L17.914,30.384z"/>
			<path fill="#1A3B3A" stroke="#1A3B3A" stroke-width="0.9782" stroke-miterlimit="10" d="M29.54,18.315
				c0.031-0.025,0.067-0.029,0.1,0.01l5.043,6.096c0.032,0.039,0.029,0.066-0.009,0.099l-0.124,0.103
				c-0.063,0.052-0.149,0.058-0.304,0.029l-9.063-1.685l4.562,5.514c0.039,0.046,0.042,0.083-0.004,0.121l-0.218,0.18
				c-0.046,0.039-0.089,0.035-0.127-0.012l-5.025-6.073c-0.032-0.039-0.028-0.081,0.011-0.113l0.171-0.141
				c0.039-0.032,0.081-0.028,0.129-0.016l9.196,1.733l-4.588-5.545c-0.032-0.039-0.03-0.067,0.01-0.099L29.54,18.315z"/>
			<path fill="#1A3B3A" stroke="#1A3B3A" stroke-width="0.9782" stroke-miterlimit="10" d="M42.902,18.889
				c0.062-0.035,0.097-0.032,0.138,0.037l0.101,0.174c0.055,0.097,0.031,0.157-0.065,0.212l-4.707,2.703
				c-0.07,0.04-0.097,0.033-0.137-0.038l-0.081-0.139l0.003-0.014L38.8,13l-4.2,2.412c-0.062,0.035-0.103,0.024-0.143-0.046
				l-0.125-0.218c-0.036-0.061-0.019-0.094,0.042-0.129l4.699-2.697c0.061-0.036,0.097-0.033,0.137,0.037l0.075,0.131l-0.003,0.014
				l-0.65,8.839L42.902,18.889z"/>
			<path fill="#1A3B3A" stroke="#1A3B3A" stroke-width="0.9782" stroke-miterlimit="10" d="M44.081,9.985
				c0.056-0.024,0.091-0.017,0.119,0.048l3.103,7.235c0.028,0.064,0.021,0.101-0.043,0.128L47.019,17.5
				c-0.065,0.028-0.096,0.008-0.123-0.057l-3.103-7.235c-0.028-0.065-0.018-0.091,0.047-0.119L44.081,9.985z"/>
			<path fill="#1A3B3A" stroke="#1A3B3A" stroke-width="0.9782" stroke-miterlimit="10" d="M56.01,6.034
				c0.039-0.01,0.073,0,0.087,0.049l2.121,7.633c0.014,0.048,0,0.073-0.049,0.086l-0.155,0.044
				c-0.078,0.021-0.159-0.008-0.289-0.098l-7.597-5.242l1.918,6.904c0.017,0.059,0.005,0.093-0.054,0.11l-0.272,0.075
				c-0.058,0.017-0.095-0.005-0.111-0.063l-2.113-7.604c-0.013-0.049,0.008-0.085,0.056-0.099l0.213-0.06
				c0.049-0.013,0.086,0.007,0.126,0.039l7.697,5.339l-1.93-6.943c-0.013-0.048,0.001-0.073,0.049-0.086L56.01,6.034z"/>
			<path fill="#1A3B3A" stroke="#1A3B3A" stroke-width="0.9782" stroke-miterlimit="10" d="M62.952,8.759L66,8.456
				c0.07-0.007,0.102,0.01,0.111,0.101l0.022,0.22c0.008,0.081-0.009,0.113-0.089,0.121l-3.049,0.304l0.327,3.29l4.704-0.468
				c0.08-0.008,0.103,0.01,0.111,0.1l0.023,0.231c0.008,0.08-0.01,0.102-0.09,0.11l-5.065,0.504
				c-0.07,0.007-0.093-0.021-0.099-0.082l-0.781-7.843c-0.007-0.071,0.012-0.092,0.082-0.099l5.065-0.504
				c0.08-0.008,0.104,0.02,0.109,0.08l0.026,0.26c0.007,0.071-0.012,0.093-0.092,0.101L62.612,5.35L62.952,8.759z"/>
			<path fill="#1A3B3A" stroke="#1A3B3A" stroke-width="0.9782" stroke-miterlimit="10" d="M88.568,6.266
				c0.06,0.011,0.076,0.034,0.064,0.103l-1.394,7.75c-0.014,0.069-0.038,0.096-0.117,0.082l-0.239-0.042
				c-0.079-0.014-0.104-0.05-0.091-0.119l1.249-6.936l-5.199,6.123c-0.05,0.052-0.085,0.077-0.136,0.068l-0.03-0.005
				c-0.059-0.011-0.083-0.046-0.102-0.111l-2.742-7.541l-1.246,6.926c-0.012,0.069-0.048,0.094-0.117,0.082l-0.238-0.043
				c-0.08-0.014-0.104-0.049-0.092-0.119l1.394-7.75c0.014-0.07,0.037-0.086,0.097-0.075l0.268,0.048
				c0.058,0.01,0.075,0.034,0.096,0.089l2.815,7.811l5.371-6.339c0.029-0.045,0.062-0.06,0.131-0.047L88.568,6.266z"/>
			<path fill="#1A3B3A" stroke="#1A3B3A" stroke-width="0.9782" stroke-miterlimit="10" d="M98.938,18.478
				c-0.004,0.063-0.033,0.084-0.082,0.065l-0.297-0.122c-0.057-0.023-0.072-0.063-0.076-0.107l-0.092-1.847l-4.982-2.042
				l-1.361,1.25c-0.045,0.026-0.074,0.046-0.121,0.026l-0.307-0.125c-0.048-0.019-0.064-0.059-0.012-0.104l6.51-5.916
				c0.055-0.054,0.088-0.052,0.125-0.036l0.148,0.061c0.037,0.015,0.062,0.036,0.062,0.113L98.938,18.478z M98.061,10.174
				l-4.309,3.943l4.617,1.893L98.061,10.174z"/>
			<path fill="#1A3B3A" stroke="#1A3B3A" stroke-width="0.9782" stroke-miterlimit="10" d="M108.743,23.034
				c0.02,0.061-0.037,0.096-0.164,0.123c-1.014,0.199-2.018,0.069-3.027-0.579c-1.934-1.24-2.52-3.759-1.285-5.683
				s3.779-2.458,5.713-1.218c0.941,0.604,1.574,1.5,1.816,2.505c0.027,0.125,0.012,0.187-0.045,0.199l-0.285,0.033
				c-0.068,0.015-0.104-0.007-0.121-0.09c-0.133-0.612-0.586-1.585-1.545-2.2c-2.119-1.36-4.27-0.322-5.135,1.026
				c-0.875,1.364-0.9,3.718,1.219,5.078c0.959,0.615,1.969,0.605,2.6,0.483c0.111-0.024,0.16-0.028,0.176,0.042L108.743,23.034z"/>
			<path fill="#1A3B3A" stroke="#1A3B3A" stroke-width="0.9782" stroke-miterlimit="10" d="M115.307,30.076
				c0.012,0.106-0.086,0.14-0.16,0.072l-0.227-0.203c-0.043-0.041-0.053-0.076-0.057-0.147l-0.35-6.062l-2.838,3.142
				c-0.047,0.052-0.082,0.061-0.135,0.014l-0.193-0.176c-0.055-0.047-0.049-0.083,0-0.136l5.025-5.565
				c0.096-0.104,0.154-0.186,0.229-0.282c0.047-0.053,0.076-0.069,0.127-0.021l0.172,0.156c0.084,0.074,0.086,0.131,0.018,0.206
				l-2.365,2.618l5.404,0.019c0.043-0.003,0.086-0.005,0.123,0.029l0.277,0.25c0.066,0.061,0.021,0.142-0.064,0.146l-5.318-0.022
				L115.307,30.076z"/>
			<path fill="#1A3B3A" stroke="#1A3B3A" stroke-width="0.9782" stroke-miterlimit="10" d="M121.391,36.562
				c0.045,0.054,0.043,0.083-0.02,0.134l-0.195,0.161c-0.055,0.044-0.082,0.042-0.127-0.012l-2.996-3.632
				c-0.045-0.054-0.025-0.11,0.021-0.148l6.064-5.005c0.055-0.045,0.084-0.042,0.135,0.02l0.16,0.195
				c0.045,0.054,0.051,0.09-0.004,0.135l-5.811,4.793L121.391,36.562z"/>
			<path fill="#1A3B3A" stroke="#1A3B3A" stroke-width="0.9782" stroke-miterlimit="10" d="M127.502,38.785l1.57,2.629
				c0.037,0.061,0.035,0.097-0.045,0.143l-0.189,0.114c-0.068,0.041-0.105,0.04-0.146-0.03l-1.57-2.629l-2.836,1.694l2.422,4.056
				c0.043,0.069,0.033,0.097-0.043,0.143l-0.199,0.119c-0.068,0.041-0.096,0.034-0.139-0.035l-2.607-4.368
				c-0.037-0.061-0.02-0.093,0.031-0.124l6.764-4.038c0.061-0.036,0.088-0.029,0.123,0.031l2.609,4.367
				c0.039,0.069,0.025,0.102-0.027,0.133l-0.225,0.134c-0.061,0.036-0.088,0.029-0.129-0.04l-2.422-4.056L127.502,38.785z"/>
			<path fill="#1A3B3A" stroke="#1A3B3A" stroke-width="0.9782" stroke-miterlimit="10" d="M138.225,52.161
				c0.012,0.028-0.004,0.067-0.055,0.054l-5.502-1.41l-3.061,1.198c-0.064,0.026-0.102,0.018-0.127-0.048l-0.076-0.197
				c-0.041-0.103,0-0.163,0.094-0.2l3.006-1.176l3.082-4.77c0.031-0.033,0.066-0.026,0.078,0.003l0.143,0.366
				c0.01,0.028,0.004,0.064-0.027,0.097l-2.787,4.362l5.004,1.301c0.049,0.014,0.076,0.025,0.086,0.053L138.225,52.161z"/>
		</g>
		<g>
			<g>
				<g>
					<path fill="#1A3B3A" d="M71.644,16.979c-21.413,0.264-40.741,11.963-50.918,30.807c-10.252,18.981-8.108,42.634,4.15,60.099
						c11.944,17.018,33.439,26.424,54.038,23.621c21.11-2.871,38.68-16.916,46.5-36.67c7.029-17.756,3.848-38.304-7.002-53.765
						C107.77,25.907,90.009,17.206,71.644,16.979c-1.578-0.02-1.576,2.426,0,2.445c24.733,0.305,46.22,16.666,53.083,40.436
						c6.898,23.9-4.35,49.515-25.318,62.144c-21.359,12.863-49.118,8.539-66.674-8.615c-17.811-17.404-20.802-45.328-8.616-66.675
						c9.668-16.938,28.233-27.051,47.526-27.289C73.22,19.405,73.222,16.96,71.644,16.979z"/>
				</g>
			</g>
			<path fill="#1A3B3A" d="M65.772,44.678c-0.275,0.17-0.425,0.487-0.381,0.809c0.042,0.321,0.269,0.587,0.579,0.683
				c0.871,0.264,1.775,0.398,2.689,0.398c5.099,0,9.247-4.149,9.247-9.248c0-5.098-4.147-9.247-9.247-9.247
				c-0.914,0-1.818,0.134-2.689,0.398c-0.31,0.094-0.537,0.36-0.579,0.682c-0.043,0.321,0.106,0.637,0.381,0.809
				c2.56,1.596,4.089,4.347,4.089,7.357C69.861,40.33,68.332,43.081,65.772,44.678z M71.512,37.319c0-2.927-1.213-5.647-3.317-7.582
				c0.154-0.009,0.308-0.014,0.463-0.014c4.188,0,7.596,3.408,7.596,7.596c0,4.189-3.408,7.596-7.596,7.596
				c-0.155,0-0.309-0.005-0.463-0.014C70.299,42.966,71.512,40.247,71.512,37.319z"/>
		</g>
	</g>
	<g>
		<path fill="#1A3B3A" stroke="#1A3B3A" stroke-width="0.6709" stroke-miterlimit="10" d="M57.806,100.204
			c-0.887,1.938-1.773,3.898-2.76,5.814l-0.532,1.115l-0.457,0.936c-0.228,0.479-0.405,0.98-0.557,1.459
			c-0.076,0.273-0.127,0.57-0.127,0.844c0,0.16,0,0.365,0.127,0.479c0.329,0.273,0.886-0.273,1.088-0.455
			c0.481-0.387,0.912-0.844,1.343-1.301l0.911-1.004c0.203-0.203,0.583-0.043,0.507,0.229c-0.026,0.092-0.127,0.16-0.33,0.389
			c-0.431,0.479-0.962,1.049-1.393,1.482c-0.405,0.387-0.836,0.82-1.342,1.07c-0.405,0.207-0.912,0.252-1.241-0.113
			c-0.43-0.479-0.228-1.23-0.076-1.756c-0.101,0.137-0.228,0.273-0.354,0.41c-0.481,0.502-1.013,0.936-1.672,1.232
			c-0.583,0.271-1.342,0.5-1.976,0.205c-1.064-0.457-0.785-1.756-0.405-2.531c0.354-0.684,0.887-1.299,1.469-1.848
			c0.481-0.455,1.039-0.865,1.647-1.162c0.708-0.365,1.519-0.615,2.355-0.592c0.151,0,0.279,0.021,0.405,0.045
			c0.379,0.068,0.253,0.57-0.126,0.502c-0.026,0-0.076-0.023-0.127-0.023c-0.683-0.068-1.418,0.115-2.026,0.412
			c-0.583,0.25-1.114,0.613-1.57,1.025c-0.583,0.545-1.14,1.162-1.495,1.846c-0.228,0.41-0.405,0.957-0.253,1.414
			c0.05,0.205,0.177,0.389,0.405,0.455c0.303,0.137,0.658,0.068,0.987-0.021c1.317-0.412,2.204-1.482,2.888-2.531
			c0.76-1.141,1.368-2.326,1.95-3.535c0.532-1.049,1.038-2.143,1.52-3.215l0.456-0.979c0.102-0.205,0.254-0.777,0.608-0.639
			C57.806,99.93,57.882,100.067,57.806,100.204z"/>
		<path fill="#1A3B3A" stroke="#1A3B3A" stroke-width="0.6709" stroke-miterlimit="10" d="M62.539,108.616l-0.608,0.617
			c-0.354,0.34-0.709,0.66-1.115,0.98c-0.811,0.613-1.874,1.254-2.989,1.139c-0.532-0.068-0.987-0.318-1.216-0.775
			c-0.253-0.523-0.177-1.139-0.05-1.688c0.304-1.139,1.013-2.258,1.976-3.055c0.405-0.342,0.886-0.639,1.418-0.729
			c0.582-0.092,1.266,0.045,1.469,0.592c0.253,0.822-0.608,1.527-1.266,1.938c-0.583,0.32-1.19,0.549-1.823,0.73
			c-0.203,0.068-0.405,0.113-0.608,0.16l-0.305,0.066c-0.05,0-0.101,0.023-0.152,0.023c-0.025,0-0.025,0.092-0.051,0.092
			c-0.126,0.365-0.203,0.752-0.203,1.139c0.026,0.252,0.076,0.549,0.279,0.754c0.177,0.137,0.405,0.227,0.634,0.227
			c0.48,0.047,0.962-0.111,1.393-0.295c0.583-0.297,1.114-0.686,1.621-1.117c0.304-0.252,0.583-0.547,0.862-0.822l0.456-0.502
			c0.101-0.111,0.279-0.135,0.405-0.043C62.893,108.229,62.666,108.458,62.539,108.616z M58.689,106.405
			c-0.481,0.479-0.861,1.025-1.165,1.619c1.038-0.229,2.203-0.594,2.937-1.299c0.203-0.184,0.38-0.412,0.431-0.662
			c0.05-0.41-0.38-0.502-0.76-0.457C59.576,105.653,59.069,106.042,58.689,106.405z"/>
		<path fill="#1A3B3A" stroke="#1A3B3A" stroke-width="0.6709" stroke-miterlimit="10" d="M68.869,108.411
			c-0.203,0.229-0.379,0.457-0.608,0.684c-0.456,0.479-0.962,0.936-1.545,1.324c-1.114,0.775-2.584,1.367-4.027,1.07
			c-0.709-0.137-1.342-0.479-1.874-0.936c-0.127-0.09-0.33-0.227-0.355-0.387c0-0.137,0.102-0.273,0.254-0.273
			c0.203-0.023,0.329,0.16,0.456,0.273s0.279,0.229,0.431,0.32c0.278,0.182,0.608,0.34,0.937,0.432
			c0.177,0.07,0.354,0.092,0.532,0.115c0.152,0.021,0.329,0.045,0.481,0.021c0.456-0.09,0.76-0.41,0.912-0.797
			c0.203-0.502,0.228-1.072,0.228-1.619c0-0.73-0.101-1.482-0.05-2.234c-0.507,0.547-1.013,1.072-1.545,1.596l-0.456,0.434
			c-0.076,0.092-0.253,0.113-0.355,0.023c-0.354-0.229,0.152-0.57,0.33-0.73c0.785-0.775,1.519-1.596,2.279-2.395l0.304-0.318
			c0.228-0.229,0.608,0.023,0.481,0.273c-0.076,0.16-0.254,0.229-0.304,0.387c-0.126,0.275-0.152,0.594-0.177,0.912
			c-0.025,0.752,0.076,1.527,0.051,2.281c0,0.639-0.051,1.367-0.431,1.938c0.811-0.273,1.52-0.73,2.153-1.254
			c0.532-0.434,1.013-0.912,1.418-1.438C68.616,107.84,69.071,108.137,68.869,108.411z"/>
		<path fill="#1A3B3A" stroke="#1A3B3A" stroke-width="0.6709" stroke-miterlimit="10" d="M73.121,108.547l-0.456,0.457
			c-0.431,0.455-0.861,0.912-1.342,1.344c-0.355,0.32-0.734,0.641-1.166,0.867c-0.304,0.16-0.734,0.342-1.063,0.182
			c-0.253-0.113-0.355-0.387-0.38-0.615c-0.076-0.502,0.101-1.002,0.279-1.459c0.278-0.707,0.607-1.367,0.962-2.051l-1.14,1.207
			c-0.253,0.275-0.709-0.021-0.43-0.342l0.38-0.41l1.722-1.777l0.558-0.594c0.076-0.09,0.177-0.16,0.304-0.137
			c0.178,0.047,0.279,0.205,0.203,0.342c-0.025,0.092-0.101,0.184-0.151,0.273c-0.583,0.959-1.115,1.939-1.571,2.965
			c-0.203,0.434-0.38,0.865-0.507,1.322c-0.051,0.182-0.076,0.365-0.051,0.547c0,0.047,0,0.273,0.102,0.273
			c0.126,0.023,0.303-0.068,0.405-0.115c0.228-0.111,0.43-0.25,0.608-0.387c0.405-0.318,0.759-0.66,1.114-1.002
			c0.33-0.32,0.659-0.662,0.963-1.004c0.152-0.16,0.43-0.57,0.709-0.365C73.375,108.229,73.223,108.411,73.121,108.547z
			 M73.096,101.229c0.557,0.273,0.025,1.186-0.532,0.934C72.007,101.891,72.539,100.979,73.096,101.229z"/>
		<path fill="#1A3B3A" stroke="#1A3B3A" stroke-width="0.6709" stroke-miterlimit="10" d="M79.831,108.387
			c-0.076,0.115-0.203,0.229-0.329,0.344l-0.279,0.297c-0.43,0.387-0.861,0.752-1.316,1.094c-0.305,0.227-0.608,0.432-0.913,0.639
			l-0.556,0.342c-0.102,0.068-0.126,0.137-0.178,0.25l-0.632,1.301c-0.532,1.07-1.013,2.143-1.621,3.168
			c-0.254,0.455-0.533,0.912-0.913,1.322c-0.253,0.273-0.582,0.525-0.987,0.57c-0.76,0.092-1.166-0.48-1.216-1.094
			c-0.051-0.434,0.05-0.867,0.203-1.277c0.379-1.049,1.165-1.984,2.051-2.736c0.583-0.502,1.267-0.912,1.951-1.301l0.759-0.455
			c0.076-0.045,0.102-0.135,0.126-0.182l0.38-0.822l-0.178,0.184c-0.506,0.523-1.088,1.049-1.824,1.275
			c-0.608,0.184-1.393,0.207-1.848-0.25c-0.38-0.363-0.431-0.912-0.355-1.391c0.101-0.637,0.43-1.23,0.835-1.777
			c1.165-1.619,3.394-3.193,5.699-2.85c0.178,0.023,0.457,0.068,0.481,0.273c0.026,0.158-0.126,0.387-0.203,0.523l-0.379,0.775
			l-1.773,3.625c0.937-0.639,1.798-1.346,2.558-2.145C79.604,107.84,80.033,108.137,79.831,108.387z M75.475,111.694
			c-0.583,0.342-1.139,0.662-1.671,1.072c-0.431,0.318-0.836,0.707-1.191,1.094c-0.506,0.594-0.937,1.301-1.114,2.029
			c-0.026,0.16-0.051,0.32-0.051,0.502c-0.025,0.252,0.025,0.615,0.278,0.775c0.405,0.229,0.836-0.229,1.063-0.502
			c0.405-0.479,0.709-1.049,0.988-1.596c0.405-0.73,0.76-1.459,1.114-2.211L75.475,111.694z M74.665,110.6
			c0.481-0.273,0.886-0.66,1.241-1.049c0.43-0.457,0.785-0.936,1.14-1.438c0.532-0.842,1.013-1.686,1.443-2.574
			c-0.785-0.115-1.595,0.066-2.305,0.387c-0.633,0.297-1.216,0.705-1.722,1.162c-0.582,0.523-1.115,1.141-1.47,1.824
			c-0.203,0.434-0.38,0.98-0.253,1.459c0.05,0.205,0.203,0.41,0.431,0.502c0.279,0.092,0.608,0.045,0.887-0.023
			C74.259,110.805,74.462,110.715,74.665,110.6z"/>
		<path fill="#1A3B3A" stroke="#1A3B3A" stroke-width="0.6709" stroke-miterlimit="10" d="M90.667,108.137
			c0.026,0.137-0.076,0.205-0.126,0.297c-0.076,0.137-0.229,0.297-0.329,0.41c-0.379,0.434-0.785,0.912-1.216,1.299
			c-0.481,0.434-1.039,0.912-1.697,1.117c-0.532,0.16-1.24,0.137-1.393-0.434c-0.076-0.25-0.026-0.5,0.05-0.752
			c0.076-0.34,0.229-0.66,0.379-0.98c0.305-0.66,0.634-1.32,0.913-1.982c0.126-0.273,0.227-0.547,0.278-0.82
			c0.025-0.16,0.076-0.365-0.051-0.502c-0.151-0.137-0.456-0.092-0.632-0.045c-0.203,0.021-0.405,0.113-0.583,0.205
			c-0.961,0.455-1.696,1.275-2.33,2.051s-1.216,1.596-1.748,2.439c-0.152,0.252-0.305,0.549-0.507,0.775
			c-0.075,0.113-0.279,0.205-0.43,0.137c-0.126-0.047-0.203-0.182-0.126-0.318l0.203-0.412c0.43-0.775,0.861-1.549,1.24-2.348
			c0.203-0.455,0.431-0.936,0.558-1.436c0.05-0.184,0.076-0.365,0.076-0.57c0.026-0.137,0-0.342-0.152-0.434
			c-0.152-0.068-0.355,0-0.506,0.068c-0.229,0.139-0.457,0.297-0.66,0.455c-0.556,0.457-1.088,0.98-1.569,1.506l-0.38,0.455
			c-0.101,0.115-0.228,0.229-0.38,0.16c-0.178-0.045-0.253-0.227-0.152-0.342c0.026-0.068,0.076-0.113,0.102-0.158l0.759-0.867
			c0.354-0.365,0.734-0.73,1.139-1.049c0.355-0.297,0.736-0.57,1.191-0.707c0.481-0.137,0.987,0.045,1.14,0.523
			c0.076,0.273,0.05,0.57,0,0.846c-0.076,0.363-0.203,0.729-0.355,1.094c0.305-0.365,0.608-0.707,0.913-1.025
			c0.506-0.502,1.063-1.004,1.748-1.324c0.481-0.227,1.266-0.455,1.773-0.092c0.506,0.367,0.279,1.096,0.126,1.551
			c-0.253,0.73-0.633,1.391-0.962,2.1c-0.126,0.295-0.279,0.592-0.379,0.912c-0.076,0.203-0.178,0.455-0.152,0.682
			c0.05,0.457,0.861,0.094,1.089-0.021c0.532-0.297,0.963-0.707,1.393-1.117c0.405-0.41,0.861-1.004,1.242-1.436
			C90.312,107.887,90.617,107.932,90.667,108.137z"/>
		<path fill="#1A3B3A" stroke="#1A3B3A" stroke-width="0.6709" stroke-miterlimit="10" d="M96.717,108.411
			c-0.203,0.229-0.381,0.457-0.607,0.684c-0.457,0.479-0.963,0.936-1.547,1.324c-1.113,0.775-2.582,1.367-4.026,1.07
			c-0.708-0.137-1.342-0.479-1.874-0.936c-0.126-0.09-0.329-0.227-0.355-0.387c0-0.137,0.102-0.273,0.253-0.273
			c0.203-0.023,0.329,0.16,0.457,0.273c0.126,0.113,0.277,0.229,0.43,0.32c0.279,0.182,0.608,0.34,0.937,0.432
			c0.178,0.07,0.355,0.092,0.532,0.115c0.152,0.021,0.331,0.045,0.481,0.021c0.456-0.09,0.761-0.41,0.913-0.797
			c0.201-0.502,0.227-1.072,0.227-1.619c0-0.73-0.102-1.482-0.051-2.234c-0.506,0.547-1.013,1.072-1.544,1.596l-0.456,0.434
			c-0.076,0.092-0.253,0.113-0.355,0.023c-0.355-0.229,0.152-0.57,0.329-0.73c0.786-0.775,1.52-1.596,2.28-2.395l0.305-0.318
			c0.229-0.229,0.607,0.023,0.48,0.273c-0.076,0.16-0.252,0.229-0.305,0.387c-0.127,0.275-0.15,0.594-0.176,0.912
			c-0.027,0.752,0.076,1.527,0.049,2.281c0,0.639-0.049,1.367-0.43,1.938c0.811-0.273,1.52-0.73,2.154-1.254
			c0.531-0.434,1.012-0.912,1.418-1.438C96.463,107.84,96.92,108.137,96.717,108.411z"/>
	</g>
	<g>
		<path fill="#F1F2F2" d="M48.065,67.252C47.772,67.154,67.052,78.61,67.052,78.61"/>
		<g>
			<path fill="#1A3B3A" d="M47.2,68.117c0.598,0.683,1.769,1.129,2.525,1.585c2.259,1.359,4.523,2.708,6.787,4.058
				c3.306,1.972,6.613,3.939,9.922,5.906c1.359,0.808,2.588-1.307,1.234-2.111c-3.096-1.84-6.191-3.682-9.285-5.526
				c-2.167-1.292-4.333-2.585-6.498-3.882c-0.716-0.429-2.903-1.698-2.957-1.759C47.889,65.199,46.166,66.936,47.2,68.117
				L47.2,68.117z"/>
		</g>
	</g>
	<g>
		<g>
			<path fill="#1A3B3A" d="M109.756,104.145c-5.77-18.51-11.537-37.02-17.305-55.529c-0.23-0.744-1.097-1.145-1.792-0.729
				c-6.183,3.69-12.365,7.38-18.547,11.07c-1.35,0.806-0.123,2.916,1.231,2.107c6.183-3.69,12.365-7.38,18.547-11.07
				c-0.597-0.243-1.195-0.486-1.792-0.729c5.769,18.51,11.537,37.019,17.304,55.529C107.87,106.292,110.225,105.653,109.756,104.145
				L109.756,104.145z"/>
		</g>
	</g>
</g>
</svg>
